<svg id="Capa_1" enable-background="new 0 0 512.085 512.085" height="512" viewBox="0 0 512.085 512.085" width="512" xmlns="http://www.w3.org/2000/svg"><g id="A_2_"><path d="m512.042 512c-68.952-178.368-130.106-333.632-199.058-512h-119.619c-67.073 178.368-126.25 333.632-193.323 512 3.359 0 137.557 0 133.103 0 1.293-3.687 39.485-112.558 38.247-109.028h164.18c1.373 3.699 41.773 112.57 40.459 109.028m-165.337-219.902 45.059-118.286 38.906 118.286z" fill="#ff7f40"/><path d="m512.042 512c-68.952-178.369-130.106-333.631-199.058-512h-57.231v173.812l38.906 118.286h-38.906v110.874h79.819c1.373 3.699 41.774 112.57 40.459 109.028" fill="#f25a3c"/></g></svg>