<svg id="Capa_1" enable-background="new 0 0 512.021 512.021" height="512" viewBox="0 0 512.021 512.021" width="512" xmlns="http://www.w3.org/2000/svg"><g><g><path d="m506.834 313.045c-5.738-11.404-15.612-19.908-27.802-23.944-12.203-4.041-25.202-3.1-36.612 2.651l-84.841 42.842c-6.864-18.091-24.358-30.987-44.814-30.987h-57.143c-22.809-21.621-54.835-33.901-88.951-33.901-21.521 0-45.351 8.709-70.559 18.558v168.526l200.476 37.732 189.718-117.368c11.116-5.808 19.378-15.581 23.305-27.594 3.994-12.215 2.993-25.21-2.777-36.515z" fill="#f0cfa3"/><path d="m312.766 399.625h-129.694v-30h129.693c9.882 0 17.922-8.11 17.922-18.079 0-9.9-8.04-17.955-17.922-17.955h-69.879l-4.445-4.75c-17.339-18.526-43.498-29.151-71.77-29.151-17.632 0-40.004 8.785-65.909 18.958-4.673 1.835-9.432 3.703-14.271 5.562l-10.757-28.006c4.769-1.831 9.457-3.673 14.062-5.482 27.546-10.816 53.563-21.033 76.874-21.033 34.117 0 66.142 12.28 88.951 33.901h57.143c26.424 0 47.922 21.513 47.922 47.955.002 26.512-21.497 48.08-47.92 48.08z" fill="#f1b986"/><path d="m0 268.212h96.113v235.458h-96.113z" fill="#5ca2fa"/><path d="m0 385.942h96.113v117.729h-96.113z" fill="#3d6def"/></g><path d="m181.83 132.193c2.819-58.68 70.26-118.002 75.006-123.842 4.556 5.581 70.791 63.724 74.899 122.025 1.36 19.297-4.326 36.369-16.444 49.372-40.864 43.848-136.946 25.009-133.461-47.555z" fill="#ff5c5c"/><path d="m331.735 130.376c-4.108-58.302-70.344-116.444-74.899-122.025v194.796c21.827.062 43.727-7.596 58.455-23.399 12.118-13.003 17.805-30.075 16.444-49.372z" fill="#ff3838"/><path d="m262.445 169.758c2.101-43.705 31.403-94.389 87.099-150.642l10.659-10.766c6.048 7.409 92.276 83.255 97.618 159.04 1.772 25.149-5.639 47.4-21.433 64.348-53.209 57.094-178.488 32.643-173.943-61.98z" fill="#ff5c5c"/><path d="m457.821 167.391c-5.342-75.785-91.57-151.631-97.618-159.04v253.871c28.455.079 57.003-9.901 76.186-30.483 15.794-16.948 23.205-39.199 21.432-64.348z" fill="#ff3838"/></g></svg>