<svg id="Filled_stroke_cut_Ex" height="512" viewBox="0 0 512 512" width="512" xmlns="http://www.w3.org/2000/svg" data-name="Filled stroke cut Ex"><g><g><path d="m252 72h-20v-8a40 40 0 0 0 -40-40h-32a40 40 0 0 0 -40 40v8h-20a52.059 52.059 0 0 0 -52 52v222.377a61.925 61.925 0 0 0 42.394 58.823l5.606 1.865v48.935h32v-38.269l6.257 2.085a131.84 131.84 0 0 0 25.743 5.804v62.38h32v-62.38a131.811 131.811 0 0 0 25.742-5.8l6.258-2.089v38.269h32v-48.936l5.607-1.869a61.923 61.923 0 0 0 42.393-58.818v-222.377a52.059 52.059 0 0 0 -52-52z" fill="#ffefed"/><path d="m251.487 374.838-43.864 14.621a100 100 0 0 1 -63.246 0l-43.864-14.621a30 30 0 0 1 -20.513-28.461v-222.377a20 20 0 0 1 20-20h152a20 20 0 0 1 20 20v222.377a30 30 0 0 1 -20.513 28.461z" fill="#e64b30"/><path d="m80 160h192v160h-192z" fill="#fef8f7"/><path d="m192 224h-24v-24h-32v24h-24v32h24v24h32v-24h24z" fill="#e64b30"/></g><g><path d="m448.007 152.827c-21.323-22.436-55.895-22.436-77.219 0l-26.794 28.191-26.8-28.191c-21.323-22.436-55.9-22.436-77.219 0-21.323 22.435-21.323 58.81 0 81.245l104.019 109.438 104.013-109.438c21.324-22.435 21.324-58.81 0-81.245z" fill="#fdbf44"/><g><path d="m56 124a44.049 44.049 0 0 1 44-44h152a44.18 44.18 0 0 1 43.871 40.609l15.953-1.218a60.252 60.252 0 0 0 -59.824-55.391h-12a48.055 48.055 0 0 0 -48-48h-32a48.055 48.055 0 0 0 -48 48h-12a60.068 60.068 0 0 0 -60 60v60h16zm104-92h32a32.036 32.036 0 0 1 32 32h-96a32.036 32.036 0 0 1 32-32z"/><path d="m160 40h32v16h-32z"/><path d="m200 224a8 8 0 0 0 -8-8h-16v-16a8 8 0 0 0 -8-8h-32a8 8 0 0 0 -8 8v16h-16a8 8 0 0 0 -8 8v32a8 8 0 0 0 8 8h16v16a8 8 0 0 0 8 8h32a8 8 0 0 0 8-8v-16h16a8 8 0 0 0 8-8zm-16 24h-16a8 8 0 0 0 -8 8v16h-16v-16a8 8 0 0 0 -8-8h-16v-16h16a8 8 0 0 0 8-8v-16h16v16a8 8 0 0 0 8 8h16z"/><path d="m200 280h48v16h-48z"/><path d="m453.806 147.314a60.846 60.846 0 0 0 -44.406-19.314 60.853 60.853 0 0 0 -44.409 19.314l-20.995 22.092-21-22.092a60.876 60.876 0 0 0 -43-19.3v-4.014a28.032 28.032 0 0 0 -28-28h-151.996a28.032 28.032 0 0 0 -28 28v222.377a37.955 37.955 0 0 0 25.983 36.051l43.864 14.621a108.673 108.673 0 0 0 68.3 0l43.865-14.621a37.955 37.955 0 0 0 25.988-36.051v-58.585l56 58.92v131.288a2 2 0 0 1 -2 2h-84a2 2 0 0 1 -2-2v-14h8a8 8 0 0 0 8-8v-43.17l.138-.045a69.912 69.912 0 0 0 47.862-66.408v-10.377h-16v10.377a53.931 53.931 0 0 1 -36.922 51.228l-5.608 1.87a8 8 0 0 0 -5.47 7.589v40.936h-16v-30.269a8 8 0 0 0 -10.53-7.589l-6.258 2.086a124.226 124.226 0 0 1 -24.181 5.451 8 8 0 0 0 -7.031 7.941v54.38h-16v-54.38a8 8 0 0 0 -7.031-7.941 124.133 124.133 0 0 1 -24.182-5.452l-6.257-2.086a8 8 0 0 0 -10.53 7.589v30.27h-16v-40.936a8 8 0 0 0 -5.471-7.589l-5.6-1.868a53.935 53.935 0 0 1 -36.929-51.23v-146.377h-16v146.377a69.914 69.914 0 0 0 47.865 66.409l.135.045v43.169a8 8 0 0 0 8 8h32a8 8 0 0 0 8-8v-27.245a140.741 140.741 0 0 0 16 3.766v55.479a8 8 0 0 0 8 8h32a8 8 0 0 0 8-8v-55.479a140.792 140.792 0 0 0 16-3.766v27.245a8 8 0 0 0 8 8h8v14a18.021 18.021 0 0 0 18 18h84a18.021 18.021 0 0 0 18-18v-131.3l69.8-73.438-11.6-11.024-66.206 69.662-98.215-103.339c-18.4-19.361-18.4-50.863 0-70.223a44.71 44.71 0 0 1 65.621 0l26.8 28.192a8 8 0 0 0 11.6 0l26.8-28.192a44.71 44.71 0 0 1 65.621 0c18.4 19.36 18.4 50.862 0 70.223l-20.84 21.927 11.6 11.024 20.841-21.928c24.162-25.439 24.162-66.831-.016-92.27zm-189.806 199.063a21.972 21.972 0 0 1 -15.043 20.871l-43.865 14.621a92.546 92.546 0 0 1 -58.185 0l-43.864-14.621a21.972 21.972 0 0 1 -15.043-20.871v-18.377h176zm-29.819-106.793 29.819 31.374v41.042h-176v-144h132.93c-9.53 23.746-5.11 52.265 13.251 71.584zm29.819-109.809a61.537 61.537 0 0 0 -29.819 17.539q-2.15 2.264-4.044 4.686h-142.137v-28a12.013 12.013 0 0 1 12-12h152a12.013 12.013 0 0 1 12 12z"/><path d="m368.572 229.029-10.144 25.361-31.644-50.63a8 8 0 0 0 -13.939.662l-13.789 27.578h-19.056v16h24a8 8 0 0 0 7.155-4.422l9.621-19.242 32.44 51.9a8 8 0 0 0 6.784 3.764c.237 0 .475-.011.713-.031a8 8 0 0 0 6.717-5l13.987-34.969h34.583v-16h-40a8 8 0 0 0 -7.428 5.029z"/></g></g></g></svg>