<svg id="Capa_1" enable-background="new 0 0 512 512" height="512" viewBox="0 0 512 512" width="512" xmlns="http://www.w3.org/2000/svg"><g><g><path d="m74.98 74.98c-48.35 48.35-74.98 112.64-74.98 181.02 0 22.71 2.97 45.22 8.84 66.92 1.77 6.54 7.7 11.08 14.48 11.08h232.68l31.06-156.429-31.06-177.571c-68.38 0-132.67 26.63-181.02 74.98z" fill="#f0f9ff"/></g><path d="m437.02 74.98c-48.35-48.35-112.64-74.98-181.02-74.98v334h232.68c6.78 0 12.71-4.54 14.48-11.08 5.87-21.7 8.84-44.21 8.84-66.92 0-68.38-26.63-132.67-74.98-181.02z" fill="#d2e6fb"/><path d="m183.491 100.409c-4.143-7.175-13.315-9.635-20.491-5.49-7.174 4.142-9.632 13.315-5.49 20.49l14.143 24.498c4.144 7.177 13.318 9.632 20.491 5.49 7.174-4.142 9.632-13.315 5.49-20.49z" fill="#ff6378"/><path d="m139.907 171.653-24.497-14.143c-7.175-4.145-16.348-1.686-20.49 5.49-4.142 7.174-1.684 16.349 5.49 20.49l24.497 14.144c7.174 4.143 16.348 1.685 20.49-5.49 4.142-7.174 1.684-16.349-5.49-20.491z" fill="#ff6378"/><path d="m113.287 241h-28.287c-8.284 0-15 6.716-15 15s6.716 15 15 15h28.287c8.284 0 15-6.716 15-15s-6.716-15-15-15z" fill="#ff6378"/><g fill="#e20059"><path d="m427 241h-28.287c-8.284 0-15 6.716-15 15s6.716 15 15 15h28.287c8.284 0 15-6.716 15-15s-6.716-15-15-15z"/><path d="m411.59 183.49c7.174-4.142 9.632-13.316 5.49-20.49s-13.316-9.634-20.49-5.49l-24.497 14.144c-7.174 4.142-9.632 13.316-5.49 20.49 4.145 7.179 13.321 9.631 20.49 5.49z"/><path d="m349 94.919c-7.177-4.144-16.349-1.684-20.491 5.49l-14.143 24.498c-4.142 7.175-1.684 16.349 5.49 20.49 7.179 4.145 16.35 1.68 20.491-5.49l14.143-24.498c4.142-7.175 1.684-16.348-5.49-20.49z"/><path d="m292.394 198.394-47 47c-5.858 5.857-5.858 15.355 0 21.213 2.928 2.928 6.767 4.393 10.606 4.393s7.678-1.465 10.606-4.394l47-47c5.858-5.857 5.858-15.355 0-21.213-5.857-5.857-15.355-5.857-21.212.001z"/></g><g fill="#92d2ff"><path d="m348.125 375.045c-.012-.061-.023-.12-.036-.181-1.608-7.889-8.345-13.715-16.383-14.169-8.04-.434-15.389 4.577-17.875 12.234-.056.172-.108.346-.158.52l-21.892 76.795-22.702-76.946c-.052-.179-.108-.355-.167-.531-2.564-7.635-9.967-12.579-18.003-12.053-8.036.538-14.712 6.438-16.235 14.347-.011.057-.021.114-.032.172l-21.326 118.156c-1.472 8.152 3.944 15.954 12.097 17.426 8.156 1.472 15.954-3.945 17.425-12.098l12.133-67.222 20.029 67.881c.052.179.108.355.167.531 2.432 7.242 9.183 12.093 16.816 12.093h.09c7.67-.039 14.416-4.966 16.785-12.262.056-.173.109-.347.159-.521l19.334-67.824 12.895 67.475c1.555 8.138 9.412 13.475 17.549 11.918 8.137-1.555 13.473-9.412 11.917-17.549z"/><path d="m419.029 360.667c-8.284 0-15 6.716-15 15v121.333c0 8.284 6.716 15 15 15s15-6.716 15-15v-121.333c0-8.284-6.716-15-15-15z"/><path d="m164.143 427.021c4.413-6.743 6.99-14.792 6.99-23.435 0-23.666-19.253-42.919-42.919-42.919h-35.243c-8.284 0-15 6.716-15 15v55.87.091 65.372c0 3.99 1.589 7.815 4.417 10.63 2.812 2.8 6.617 4.37 10.583 4.37h.067c.324-.002 32.522-.145 41.333-.145 26.279 0 47.659-21.38 47.659-47.659-.001-15.021-6.993-28.433-17.887-37.175zm-35.928-36.354c7.124 0 12.919 5.796 12.919 12.919s-5.795 12.919-12.919 12.919c-2.588 0-7.384.014-12.625.032h-7.619v-25.87zm6.155 91.188c-4.838 0-16.624.043-26.399.081v-35.371c2.536-.01 5.163-.02 7.686-.029h18.713c9.737 0 17.659 7.922 17.659 17.659s-7.922 17.66-17.659 17.66z"/></g><path d="m271 85v28.29c0 8.28-6.72 15-15 15v-58.29c8.28 0 15 6.72 15 15z" fill="#e20059"/><path d="m256 70v58.29c-8.28 0-15-6.72-15-15v-28.29c0-8.28 6.72-15 15-15z" fill="#ff6378"/></g></svg>