<svg id="Capa_1" enable-background="new 0 0 512 512" height="512" viewBox="0 0 512 512" width="512" xmlns="http://www.w3.org/2000/svg"><g id="C_2_"><path d="m482.8 336.099c-.3.601-.899 2.701-1.8 6.301-.3 1.199-.601 2.401-.899 3.6-10.201 36.301-51.301 163.001-210.901 165.7-1.8.3-3.6.3-5.4.3-140.4 0-234.6-101.8-234.6-251.8 0-159.9 92.1-260.2 240.3-260.2h.3c161.4 0 200.099 121.3 209.7 154.6.3 1.199.601 2.401.899 3.3.901 3.001 1.201 4.801 1.501 5.101l-126.6 29.099c-.3-.899-.899-4.799-2.401-10.199-.298-2.1-.899-4.2-1.8-6.601-6.299-23.101-25.199-62.401-81.899-63.9-1.5-.3-2.701-.3-4.2-.3-69.899 0-105.599 47.701-105.599 141.901 0 98.099 34.799 147.9 103.499 147.9 2.1 0 4.2 0 6.301-.601 77.401-3.6 84.901-81.899 88.801-99.3.298-1.199.599-2.1.899-2.701z" fill="#a0e65c"/><g fill="#79cc52"><path d="m482.8 336.099c-.3.601-.899 2.701-1.8 6.301-.3 1.199-.601 2.401-.899 3.6-10.201 36.301-51.301 163.001-210.901 165.7v-111.4c77.401-3.6 84.901-81.899 88.801-99.3.298-1.199.599-2.1.899-2.701z"/><path d="m481.901 163.001-126.601 29.099c-.3-.899-.899-4.799-2.401-10.199-.298-2.1-.899-4.2-1.8-6.601-6.299-23.101-25.199-62.401-81.899-63.9 0 0 0-102.1.3-111.4h.3c161.4 0 200.099 121.3 209.7 154.6.3 1.199.601 2.401.899 3.3.901 3.001 1.202 4.8 1.502 5.101z"/></g></g></svg>