<svg width="363" height="312" viewBox="0 0 363 312" fill="none" xmlns="http://www.w3.org/2000/svg">
<path d="M332.456 175.948V170.112C332.456 137.592 306 111.132 273.48 111.132H223.744C221.904 95.296 209.32 82.712 193.484 80.872V51.776C201.556 49.944 207.612 42.744 207.612 34.128C207.612 24.132 199.48 16.004 189.484 16.004C179.488 16.004 171.36 24.136 171.36 34.128C171.36 42.744 177.416 49.948 185.484 51.776V80.872C169.648 82.712 157.064 95.3 155.224 111.132H105.492C72.968 111.132 46.512 137.588 46.512 170.112V175.948C29.36 177.94 16 192.536 16 210.212C16 227.888 29.36 242.48 46.512 244.472V252.58C46.512 285.1 72.968 311.56 105.492 311.56H273.48C306 311.56 332.456 285.104 332.456 252.58V244.472C349.608 242.48 362.968 227.888 362.968 210.212C362.968 192.536 349.608 177.94 332.456 175.948Z" fill="#E6E7E8"/>
<path d="M257.48 291.556H89.492C59.256 291.556 34.512 266.816 34.512 236.576V154.112C34.512 123.876 59.252 99.136 89.492 99.136H257.48C287.716 99.136 312.46 123.876 312.46 154.112V236.58C312.456 266.816 287.716 291.556 257.48 291.556Z" fill="#72C7E4"/>
<path d="M257.48 99.136H89.492C59.256 99.136 34.512 123.876 34.512 154.116V166.116C34.512 135.876 59.252 111.136 89.492 111.136H257.48C287.72 111.136 312.46 135.876 312.46 166.116V154.116C312.456 123.876 287.716 99.136 257.48 99.136Z" fill="white"/>
<path d="M89.492 264.068C74.332 264.068 62.004 251.736 62.004 236.58V154.112C62.004 138.952 74.336 126.624 89.492 126.624H257.48C272.64 126.624 284.968 138.956 284.968 154.112V236.58C284.968 251.74 272.636 264.068 257.48 264.068H89.492Z" fill="#FFD7E5"/>
<path d="M34.512 163.696V224.72C17.652 224.72 4 211.068 4 194.208C4 177.348 17.652 163.696 34.512 163.696Z" fill="#0089EF"/>
<path d="M342.972 194.208C342.972 211.068 329.32 224.72 312.46 224.72V163.696C329.316 163.696 342.972 177.348 342.972 194.208Z" fill="#0089EF"/>
<path d="M173.484 68.624C156.624 68.624 142.972 82.276 142.972 99.136H204C204 82.276 190.344 68.624 173.484 68.624Z" fill="#0089EF"/>
<path d="M173.484 32.26C181.287 32.26 187.612 25.9347 187.612 18.132C187.612 10.3293 181.287 4.004 173.484 4.004C165.681 4.004 159.356 10.3293 159.356 18.132C159.356 25.9347 165.681 32.26 173.484 32.26Z" fill="#FA759E"/>
<path d="M117.78 163.084C108.332 163.084 100.6 170.816 100.6 180.264C100.6 189.712 108.332 197.444 117.78 197.444C127.228 197.444 134.96 189.712 134.96 180.264C134.96 170.816 127.232 163.084 117.78 163.084Z" fill="#3A2C60"/>
<path d="M229.192 197.444C238.68 197.444 246.372 189.752 246.372 180.264C246.372 170.776 238.68 163.084 229.192 163.084C219.704 163.084 212.012 170.776 212.012 180.264C212.012 189.752 219.704 197.444 229.192 197.444Z" fill="#3A2C60"/>
<path d="M187.728 217.124C187.52 217.388 182.564 223.608 173.484 223.608C164.236 223.608 159.536 217.512 159.296 217.2C158 215.428 155.516 215.028 153.728 216.316C151.936 217.608 151.532 220.108 152.824 221.9C153.108 222.296 159.98 231.608 173.48 231.608C186.636 231.608 193.784 222.368 194.08 221.976C195.408 220.224 195.064 217.74 193.324 216.4C191.592 215.072 189.08 215.384 187.728 217.124V217.124Z" fill="#3A2C60"/>
<path d="M316.456 159.948V154.112C316.456 121.592 290 95.132 257.48 95.132H207.744C205.904 79.296 193.32 66.712 177.484 64.872V35.776C185.556 33.944 191.612 26.744 191.612 18.128C191.612 8.13199 183.48 0 173.484 0C163.488 0 155.36 8.13199 155.36 18.128C155.36 26.744 161.416 33.944 169.484 35.776V64.872C153.648 66.712 141.064 79.3 139.224 95.132H89.492C56.968 95.132 30.512 121.588 30.512 154.112V159.948C13.36 161.94 0 176.532 0 194.212C0 211.888 13.36 226.48 30.512 228.472V236.58C30.512 269.1 56.968 295.56 89.492 295.56H257.48C290 295.56 316.456 269.104 316.456 236.58V228.472C333.608 226.48 346.968 211.888 346.968 194.212C346.968 176.532 333.608 161.94 316.456 159.948ZM163.36 18.132C163.36 12.548 167.904 8.004 173.484 8.004C179.068 8.004 183.612 12.548 183.612 18.132C183.612 23.716 179.068 28.256 173.484 28.256C167.904 28.256 163.36 23.716 163.36 18.132V18.132ZM173.484 72.624C186.74 72.624 197.76 82.408 199.696 95.136H147.276C149.208 82.408 160.228 72.624 173.484 72.624ZM8 194.212C8 180.952 17.784 169.936 30.512 168V220.424C17.784 218.484 8 207.468 8 194.212ZM308.456 236.58C308.456 264.688 285.588 287.56 257.48 287.56H89.492C61.384 287.56 38.512 264.692 38.512 236.58V224.724V163.696V154.112C38.512 126.004 61.384 103.132 89.492 103.132H142.972H203.996H257.48C285.588 103.132 308.456 126 308.456 154.112V163.696V224.72V236.58ZM316.456 220.42V167.996C329.184 169.932 338.968 180.948 338.968 194.208C338.968 207.468 329.184 218.484 316.456 220.42Z" fill="#3A2C60"/>
</svg>
