<svg id="Capa_1" enable-background="new 0 0 512 512" height="512" viewBox="0 0 512 512" width="512" xmlns="http://www.w3.org/2000/svg"><g><path d="m388.982 307.47c10.627-11.871 17.105-27.531 17.105-44.681v-151.584h-300.175v151.584c0 17.15 6.478 32.81 17.106 44.681z" fill="#f3f0f3"/><g><g fill="#fe9901"><path d="m369.247 49.862c-18.035-29.881-50.812-49.862-88.259-49.862h-49.976c-37.447 0-70.224 19.981-88.259 49.862z"/><path d="m352.164 111.205c.384 1.862.586 3.79.586 5.765v31.03h8.328c10.354 0 19.238 6.393 22.928 15.436v-52.23h-31.842z"/><path d="m127.994 111.205v52.231c3.689-9.043 12.574-15.436 22.928-15.436h8.328v-31.03c0-1.974.202-3.902.586-5.765z"/></g><g fill="#fb8801"><path d="m186.374 48.862c18.158-29.324 50.616-48.862 87.643-48.862h-43.004c-37.026 0-69.485 19.538-87.644 48.862z"/><path d="m127.994 112.205v48.823c4.267-8.326 12.929-14.028 22.927-14.028h7.328v-30.03c0-1.624.146-3.212.398-4.765z"/></g><g><path d="m453.999 512h-395.998c-5.69 0-10.302-4.612-10.302-10.302v-148.87c0-25.603 20.755-46.358 46.358-46.358h323.885c25.603 0 46.358 20.755 46.358 46.358v148.871c0 5.689-4.612 10.301-10.301 10.301z" fill="#05e39c"/></g><g><path d="m103.126 501.698v-148.87c0-25.603 20.755-46.358 46.358-46.358h-55.426c-25.603 0-46.358 20.755-46.358 46.358v148.871c0 5.69 4.612 10.302 10.302 10.302h55.426c-5.69-.001-10.302-4.613-10.302-10.303z" fill="#0ed290"/></g><path d="m295.048 301.469v-21.551c-5.666 1.346-11.499 2.035-17.383 2.035h-43.33c-5.884 0-11.717-.689-17.382-2.035v21.551c0 2.761-2.239 5-5 5h-31.156l71.203 87.793c2.061 2.542 5.94 2.542 8.001 0l71.202-87.793h-31.155c-2.762 0-5-2.238-5-5z" fill="#f6a96c"/><g><g><path d="m211.702 306.47h-30.905l71.203 87.792c2.061 2.542 5.94 2.542 8.001 0l11.452-14.12z" fill="#ea9b58"/></g></g><g><path d="m361.079 147h-8.329v59.869c0 4.57-.412 9.062-1.194 13.443h9.523c14.224 0 25.754-11.531 25.754-25.755v-21.803c0-14.223-11.531-25.754-25.754-25.754z" fill="#ea9b58"/><path d="m159.25 206.869v-59.869h-8.328c-14.224 0-25.755 11.531-25.755 25.755v21.803c0 14.224 11.531 25.755 25.755 25.755h9.523c-.783-4.382-1.195-8.874-1.195-13.444z" fill="#d88a55"/></g><g><g><path d="m351.26 172.427-35.478 50.019v47.31l1 2.376c22.146-13.302 36.969-37.549 36.969-65.264v-36.225z" fill="#f6a96c"/></g><g fill="#f6a96c"><path d="m158.817 111.205c-.369 1.865-.567 3.792-.567 5.765v26.471l3.832 7.251 39.953 57.367 45.249-17.64c.697-.271 1.414-.513 2.129-.717 2.118-.605 4.315-.912 6.53-.912 2.063 0 4.126.267 6.134.793 1.006.262 1.869.535 2.641.836l45.313 17.664 39.934-56.3 3.786-7.066v-27.747c0-1.973-.198-3.9-.567-5.765z"/><path d="m196.22 222.458-34.583-49.657-3.387-3.113v37.181c0 27.715 14.823 51.962 36.969 65.264l1-2.376v-47.299z"/></g></g><g fill="#ea9b58"><path d="m195.219 233.79c-2.061-5.446-3.506-11.19-4.271-17.15l-32.699-46.952v37.181c0 27.715 14.823 51.962 36.969 65.264v-38.343z"/><path d="m158.638 112.205c-.252 1.552-.388 3.142-.388 4.765v26.471l32.053 46.024v-72.495c0-1.623.136-3.213.388-4.765z"/></g><path d="m256 188.78c2.565 0 5.078.429 7.5 1.228v-29.241c0-4.143-3.357-7.5-7.5-7.5s-7.5 3.357-7.5 7.5v29.242c2.423-.8 4.936-1.229 7.5-1.229z" fill="#a44f3e"/><g><g><path d="m209.642 177.06c-4.143 0-7.5-3.357-7.5-7.5v-18.638c0-4.143 3.357-7.5 7.5-7.5s7.5 3.357 7.5 7.5v18.638c0 4.142-3.358 7.5-7.5 7.5z" fill="#a44f3e"/></g><g><path d="m302.358 177.06c-4.143 0-7.5-3.357-7.5-7.5v-18.638c0-4.143 3.357-7.5 7.5-7.5s7.5 3.357 7.5 7.5v18.638c0 4.142-3.357 7.5-7.5 7.5z" fill="#a44f3e"/></g></g><g><path d="m265.08 189.487c-5.839-2.276-12.321-2.276-18.16 0l-51.7 20.154v62.491c11.431 6.866 24.81 10.821 39.115 10.821h43.33c14.306 0 27.685-3.955 39.116-10.821v-49.368l36.969-52.12v-25.927l-44.084 62.151z" fill="#eaf6ff"/><path d="m195.219 272.132c7.062 4.242 14.869 7.365 23.179 9.136v-51.896c0-4.237 2.594-8.041 6.537-9.589l58.724-23.054-18.579-7.243c-5.839-2.276-12.321-2.276-18.16 0l-44.516 17.354-44.154-63.4v26.247l36.969 53.084z" fill="#d8ecfe"/><g><g><path d="m280.724 234.655h-49.448c-4.142 0-7.5-3.358-7.5-7.5s3.358-7.5 7.5-7.5h49.448c4.142 0 7.5 3.358 7.5 7.5s-3.358 7.5-7.5 7.5z" fill="#fff"/></g><g><path d="m280.724 260.41h-49.448c-4.142 0-7.5-3.358-7.5-7.5s3.358-7.5 7.5-7.5h49.448c4.142 0 7.5 3.358 7.5 7.5s-3.358 7.5-7.5 7.5z" fill="#fff"/></g></g></g></g><g><g><path d="m169.465 409.497h-16.998c-1.707 0-3.091-1.384-3.091-3.091v-16.998c0-1.707-1.384-3.091-3.091-3.091h-19.573c-1.707 0-3.091 1.384-3.091 3.091v16.998c0 1.707-1.384 3.091-3.091 3.091h-16.998c-1.707 0-3.091 1.384-3.091 3.091v19.573c0 1.707 1.384 3.091 3.091 3.091h16.998c1.707 0 3.091 1.384 3.091 3.091v16.998c0 1.707 1.384 3.091 3.091 3.091h19.573c1.707 0 3.091-1.384 3.091-3.091v-16.998c0-1.707 1.384-3.091 3.091-3.091h16.998c1.707 0 3.091-1.384 3.091-3.091v-19.573c-.001-1.707-1.384-3.091-3.091-3.091z" fill="#26a6fe"/></g><g><path d="m137.157 448.113c-1.707 0-3.091-1.384-3.091-3.091v-16.998c0-1.707-1.384-3.091-3.091-3.091h-16.998c-1.707 0-3.09-1.384-3.09-3.091v-12.346h-7.354c-1.707 0-3.091 1.384-3.091 3.091v19.573c0 1.707 1.384 3.091 3.091 3.091h16.998c1.707 0 3.09 1.384 3.09 3.091v16.998c0 1.707 1.384 3.09 3.091 3.09h19.573c1.707 0 3.091-1.384 3.091-3.09v-7.227z" fill="#0593fc"/></g><g><g><path d="m408.467 465.127h-88.596c-1.707 0-3.091-1.384-3.091-3.091v-55.63c0-1.707 1.384-3.091 3.091-3.091h88.596c1.707 0 3.091 1.384 3.091 3.091v55.63c-.001 1.707-1.384 3.091-3.091 3.091z" fill="#fff"/></g><g><path d="m347.686 462.036v-55.63c0-1.707 1.384-3.091 3.091-3.091h-30.905c-1.707 0-3.091 1.384-3.091 3.091v55.63c0 1.707 1.384 3.091 3.091 3.091h30.905c-1.707 0-3.091-1.384-3.091-3.091z" fill="#f3f0f3"/></g><g><path d="m379.622 387.122h-30.906c-4.143 0-7.5-3.357-7.5-7.5s3.357-7.5 7.5-7.5h30.906c4.143 0 7.5 3.357 7.5 7.5s-3.357 7.5-7.5 7.5z" fill="#f3f0f3"/></g></g></g><g><path d="m418.618 111.205h-13.53v151.584c0 36.429-29.637 66.065-66.065 66.065h-166.045c-36.429 0-66.065-29.637-66.065-66.065v-151.584h-13.53l-1.47 1v150.584c0 44.699 36.366 81.065 81.065 81.065h166.045c44.699 0 81.065-36.366 81.065-81.065v-150.584z" fill="#0182fc"/><g><path d="m420.088 112.205h-328.176v-29.569c0-18.623 15.15-33.773 33.773-33.773h260.629c18.623 0 33.773 15.15 33.773 33.773v29.569z" fill="#26a6fe"/></g><path d="m188.598 48.862h-62.912c-18.623 0-33.773 15.15-33.773 33.773v29.569h62.912v-29.568c-.001-18.623 15.15-33.774 33.773-33.774z" fill="#0593fc"/></g></g></svg>