<svg id="Layer_1" enable-background="new 0 0 256 256" height="512" viewBox="0 0 256 256" width="512" xmlns="http://www.w3.org/2000/svg"><g><circle cx="104.456" cy="103.5" fill="#e0ebfc" r="101.456"/><circle cx="104.457" cy="103.5" fill="#a4c9ff" r="86.457"/><path d="m132.015 120.638h-55.117c-8.953 0-16.211 7.272-16.211 16.242v13.146 7.236h14.414v14.904h58.711v-14.904h14.414v-7.236-13.146c0-8.97-7.258-16.242-16.211-16.242z" fill="#6bdddd"/><g fill="#f9cfcf"><path d="m87.922 106.509v15.429.002c0 8.961 7.25 16.225 16.194 16.225 8.94 0 16.194-7.259 16.194-16.227 0-3.121 0-12.203 0-15.429z"/><path d="m60.687 157.262h14.414v14.904h-14.414z"/><path d="m133.812 157.262h14.414v14.904h-14.414z"/></g><path d="m104.457.043c-57.046 0-103.457 46.411-103.457 103.457s46.411 103.457 103.457 103.457 103.457-46.411 103.457-103.457-46.411-103.457-103.457-103.457zm0 202.914c-54.841 0-99.457-44.617-99.457-99.457s44.616-99.457 99.457-99.457 99.457 44.616 99.457 99.457-44.617 99.457-99.457 99.457z" fill="#3762cc"/><path d="m60.687 157.262h14.414v14.904h-14.414z" fill="#f9cfcf"/><path d="m132.015 118.638h-9.705v-12.129c0-1.104-.896-2-2-2h-32.388c-1.104 0-2 .896-2 2v12.129h-9.024c-10.042 0-18.211 8.183-18.211 18.242v35.286c0 1.104.896 2 2 2h87.539c1.104 0 2-.896 2-2v-35.286c0-10.059-8.169-18.242-18.211-18.242zm14.211 51.528h-10.413v-23.764c0-1.104-.895-2-2-2-1.104 0-2 .896-2 2v23.764h-54.712v-23.764c0-1.104-.896-2-2-2s-2 .896-2 2v23.764h-10.414v-33.286c0-7.853 6.375-14.242 14.211-14.242h11.024c1.104 0 2-.896 2-2v-12.129h28.388v12.129c0 1.104.896 2 2 2h11.705c7.836 0 14.211 6.389 14.211 14.242z" fill="#3762cc"/><path d="m104.456 109.238c-20.973 0-37.975-17.002-37.975-37.974v-16.027c0-5.272 4.274-9.545 9.545-9.545h66.404v25.571c.001 20.973-17.001 37.975-37.974 37.975z" fill="#4671c6"/><path d="m136.8 73.763v-3.034c0-17.735-14.48-32.113-32.343-32.113-17.863 0-32.343 14.377-32.343 32.113v3.034c-5.616-.114-10.072 4.368-10.072 9.787 0 5.786 5.041 10.362 10.926 9.739 3.338 14.208 16.165 24.793 31.489 24.793 15.325 0 28.151-10.586 31.489-24.793 5.877.623 10.926-3.945 10.926-9.739-.001-5.421-4.46-9.901-10.072-9.787z" fill="#f9cfcf"/><path d="m142.431 67.534h-51.099c-10.614 0-19.218-8.604-19.218-19.218v-.788c0-10.614 8.604-19.218 19.218-19.218h33.89c9.504 0 17.209 7.705 17.209 17.209z" fill="#4671c6"/><path d="m81.428 108.504c5.863 5.91 14.012 9.577 23.028 9.577s17.164-3.667 23.027-9.576v-15.217h-46.055z" fill="#e0ebfc"/><g><path d="m115.203 100.526h-21.493c-.705 0-1.277-.573-1.277-1.279s.572-1.279 1.277-1.279h21.493c.705 0 1.277.573 1.277 1.279s-.572 1.279-1.277 1.279z" fill="#a4c9ff"/></g><g><path d="m115.203 106.063h-21.493c-.705 0-1.277-.573-1.277-1.279s.572-1.279 1.277-1.279h21.493c.705 0 1.277.573 1.277 1.279s-.572 1.279-1.277 1.279z" fill="#a4c9ff"/></g><g><path d="m115.203 111.601h-21.493c-.705 0-1.277-.573-1.277-1.279s.572-1.279 1.277-1.279h21.493c.705 0 1.277.573 1.277 1.279s-.572 1.279-1.277 1.279z" fill="#a4c9ff"/></g><path d="m121.248 89.689c-2.258 0-4.088-1.83-4.088-4.088v-4.361c0-2.258 1.83-4.088 4.088-4.088 2.258 0 4.088 1.83 4.088 4.088v4.361c0 2.258-1.83 4.088-4.088 4.088z" fill="#3762cc"/><path d="m87.657 89.689c-2.258 0-4.088-1.83-4.088-4.088v-4.361c0-2.258 1.83-4.088 4.088-4.088 2.258 0 4.088 1.83 4.088 4.088v4.361c0 2.258-1.83 4.088-4.088 4.088z" fill="#3762cc"/><path d="m145.332 75.145c-.326-.32-.672-.61-1.027-.887.075-1.004.126-2.007.126-2.994v-3.729-22.015c0-10.592-8.617-19.209-19.209-19.209h-33.89c-10.934 0-19.958 8.315-21.093 18.952-3.531 2.05-5.756 5.838-5.756 9.975v16.026c0 .989.051 1.991.126 2.994-.355.277-.701.568-1.028.887-2.282 2.236-3.539 5.221-3.539 8.405 0 3.327 1.424 6.515 3.906 8.748 2.068 1.86 4.726 2.925 7.486 3.037 4.207 14.739 17.636 24.747 33.023 24.747 15.224 0 28.774-9.857 33.023-24.747 2.761-.112 5.419-1.177 7.487-3.038 2.481-2.232 3.904-5.42 3.904-8.747 0-3.184-1.257-6.17-3.539-8.405zm-40.875 40.936c-4.743 0-9.542-1.09-14.021-3.396-2.535-1.316-4.893-2.998-7.007-5.02v-12.376h42.055v12.377c-2.113 2.022-4.47 3.703-7.004 5.018-4.344 2.237-9.168 3.397-14.023 3.397zm-25.029-13.082c-1.608-2.34-2.916-4.918-3.824-7.711h3.824zm50.055-7.71h3.825c-.908 2.794-2.217 5.372-3.825 7.712zm-3.262-4h-43.531l-8.577-17.979c0-3.022-.154-6.386 1.235-11.072 3.961 4.537 9.824 7.297 15.983 7.297h43.438c.04 1 .03.935.03 3.773zm12.579-19.397c0-.858.007-1.591-.021-2.358h1.652c0 1.572.006 1.986-.014 2.721-.528-.156-1.067-.281-1.617-.363zm-47.468-41.582h33.89c8.387 0 15.209 6.823 15.209 15.209v20.015h-3.791-45.308c-.879 0-2.105-.101-3.219-.313-8.181-1.58-14.557-8.722-13.951-18.605 0-.006-.002-.011-.001-.017.486-9.061 7.99-16.289 17.171-16.289zm-22.85 40.953v-16.026c0-1.79.637-3.482 1.738-4.81.063.637.164 1.262.282 1.881.008.039.01.079.018.118.398 2.019 1.088 3.933 2.017 5.703-1.933 4.823-2.424 9.019-2.424 13.762-.55.082-1.089.207-1.617.363-.009-.331-.014-.662-.014-.991zm-4.44 12.287c0-2.101.831-4.071 2.338-5.548 1.172-1.149 2.736-1.928 4.451-2.161.018-.002.036-.005.055-.007l7.373 15.455h-5.291c-.001 0-.001 0-.002 0-.069 0-.139.003-.209.011-2.267.24-4.451-.461-6.134-1.976-1.641-1.475-2.581-3.58-2.581-5.774zm78.249 5.773c-1.684 1.515-3.864 2.216-6.135 1.977-.041-.005-.081 0-.121-.002-.031-.001-.06-.009-.091-.009h-5.291l7.372-15.453h.002c1.769.231 3.339 1.021 4.507 2.167 1.508 1.477 2.338 3.447 2.338 5.548-.001 2.193-.941 4.297-2.581 5.772z" fill="#3762cc"/><path d="m229.086 144.898c-2.748 0-4.975-2.227-4.975-4.975v-8.606c0-1.832-1.485-3.317-3.317-3.317h-69.237c-1.832 0-3.317 1.485-3.317 3.317v8.606c0 2.748-2.227 4.975-4.975 4.975h-8.776c-1.832 0-3.317 1.485-3.317 3.317v39.302c0 13.291 4.131 26.254 11.822 37.095 7.08 9.98 16.869 17.726 28.21 22.322l14.971 6.066 14.971-6.067c11.341-4.596 21.129-12.341 28.21-22.322 7.691-10.841 11.822-23.804 11.822-37.095v-39.302c0-1.832-1.485-3.317-3.317-3.317h-8.775z" fill="#4671c6"/><path d="m175.563 236.633c-9.303-3.77-17.292-10.092-23.101-18.28-6.333-8.927-9.681-19.431-9.681-30.378v-31.01h.483c9.145 0 16.584-7.439 16.584-16.584v-.314h52.653v.314c0 9.144 7.439 16.584 16.584 16.584h.483v31.01c0 10.947-3.348 21.451-9.681 30.378-5.809 8.188-13.798 14.51-23.102 18.28l-10.611 4.3z" fill="#e0ebfc"/><path d="m213.02 180.068h-17.413v-17.413c0-1.832-1.485-3.317-3.317-3.317h-12.23c-1.832 0-3.317 1.485-3.317 3.317v17.413h-17.413c-1.832 0-3.317 1.485-3.317 3.317v12.23c0 1.832 1.485 3.317 3.317 3.317h17.413v17.413c0 1.832 1.485 3.317 3.317 3.317h12.231c1.832 0 3.317-1.485 3.317-3.317v-17.413h17.413c1.832 0 3.317-1.485 3.317-3.317v-12.23c-.001-1.832-1.486-3.317-3.318-3.317z" fill="#f9a7a7"/><g><path d="m185.424 254.854-14.971-6.067c-11.717-4.749-21.776-12.708-29.09-23.018-7.976-11.242-12.19-24.469-12.19-38.252v-39.301c0-2.932 2.385-5.317 5.316-5.317h8.775c1.641 0 2.976-1.334 2.976-2.975v-8.606c0-2.932 2.385-5.317 5.316-5.317h69.237c2.932 0 5.316 2.385 5.316 5.317v8.606c0 1.641 1.335 2.975 2.976 2.975h8.775c2.932 0 5.316 2.385 5.316 5.317v39.301c0 13.783-4.215 27.011-12.19 38.252-7.315 10.311-17.374 18.27-29.09 23.018l-14.972 6.067c-.479.195-1.02.195-1.5 0zm-50.935-107.956c-.726 0-1.316.591-1.316 1.317v39.301c0 12.949 3.96 25.376 11.452 35.938 6.872 9.687 16.322 17.164 27.33 21.625l14.22 5.762 14.221-5.762c11.006-4.46 20.457-11.938 27.33-21.625 7.492-10.562 11.452-22.989 11.452-35.938v-39.301c0-.726-.591-1.317-1.316-1.317h-8.775c-3.847 0-6.976-3.129-6.976-6.975v-8.606c0-.726-.591-1.317-1.316-1.317h-69.237c-.726 0-1.316.591-1.316 1.317v8.606c0 3.846-3.129 6.975-6.976 6.975z" fill="#3762cc"/></g><g><path d="m185.424 242.787-10.611-4.3c-9.658-3.914-17.951-10.476-23.981-18.977-6.575-9.267-10.05-20.172-10.05-31.535v-31.01c0-1.104.896-2 2-2h.483c8.042 0 14.584-6.542 14.584-14.583v-.314c0-1.104.896-2 2-2h52.653c1.104 0 2 .896 2 2v.314c0 8.042 6.542 14.583 14.584 14.583h.483c1.104 0 2 .896 2 2v31.01c0 11.363-3.475 22.268-10.05 31.535-6.03 8.5-14.323 15.062-23.982 18.977l-10.611 4.3c-.481.195-1.022.195-1.502 0zm-9.11-8.008 9.86 3.996 9.86-3.996c8.95-3.627 16.634-9.708 22.223-17.584 6.092-8.587 9.312-18.691 9.312-29.221v-29.071c-8.984-.729-16.183-7.875-16.991-16.836h-48.806c-.809 8.961-8.007 16.108-16.991 16.836v29.071c0 10.529 3.22 20.634 9.312 29.221 5.589 7.877 13.272 13.957 22.221 17.584z" fill="#3762cc"/></g></g></svg>