<svg id="Layer_1" enable-background="new 0 0 512 512" height="512" viewBox="0 0 512 512" width="512" xmlns="http://www.w3.org/2000/svg"><g><g><g><path d="m463.537 294.127-23.874-60.93c-4.77-12.173-7.922-24.91-9.521-37.885-11.048-89.65-87.932-158.916-180.798-157.928-98.913 1.053-178.944 82.59-178.24 181.505.422 59.218 29.421 111.624 73.88 144.165 8.426 6.167 13.51 15.895 13.51 26.337v112.308c0 5.69 4.612 10.302 10.302 10.302h186.975c5.69 0 10.302-4.612 10.302-10.302v-84.829l52.504-4.763c12.801-1.161 22.02-12.807 20.212-25.533l-9.508-66.921 28.535-11.987c5.265-2.214 7.804-8.222 5.721-13.539z" fill="#8dcafc"/><g fill="#64b9fc"><path d="m366.073 416.869h-31.361c-5.274 0-9.55 4.276-9.55 9.55v85.581h30.609c5.69 0 10.302-4.612 10.302-10.302z"/><g><path d="m175.611 54.11c-49.4 23.033-86.715 67.82-99.605 121.781 13.653 11.413 31.227 18.276 50.401 18.276 43.456 0 78.676-35.221 78.676-78.666.001-24.829-11.506-46.975-29.472-61.391z"/><path d="m126.407 220.637c-20.753 0-39.627 8.029-53.682 21.165 6.687 49.833 33.776 93.196 72.557 121.472 3.612 2.631 6.574 5.954 8.761 9.711 29.824-11.176 51.041-39.947 51.041-73.682 0-43.446-35.221-78.666-78.677-78.666z"/><ellipse cx="312.05" cy="299.307" rx="78.673" ry="78.673" transform="matrix(.707 -.707 .707 .707 -120.245 308.318)"/><path d="m463.538 294.13-23.875-60.937c-4.784-12.205-7.926-24.982-9.54-37.999-10.992-88.756-86.531-157.505-178.2-157.82-7.01-.019-13.924.353-20.723 1.127 14.12 1.566 27.752 4.746 40.715 9.34-23.051 13.703-38.51 38.831-38.535 67.589-.038 42.836 34.815 78.189 77.648 78.731 19.766.25 37.868-6.794 51.805-18.605 9.885-8.378 25.133-2.766 27.584 9.958.766 3.978 1.404 8.002 1.908 12.068 1.643 13.208 4.823 26.176 9.684 38.572l24.237 61.844c2.111 5.405-.468 11.498-5.816 13.742l-22.171 9.313c-4.002 1.681-6.367 5.85-5.757 10.148l8.618 60.642c1.346 9.454-3.314 18.317-11.001 22.843l28.458-2.578c12.806-1.165 22.022-12.806 20.217-25.536l-9.512-66.925 28.535-11.985c5.262-2.206 7.803-8.222 5.721-13.532z"/></g></g></g></g><g><g><circle cx="126.409" cy="78.673" fill="#fddd45" r="78.673"/><path d="m205.08 78.674c0 43.454-35.218 78.673-78.673 78.673-6.589 0-12.987-.809-19.099-2.342 34.219-8.531 59.564-39.465 59.564-76.33s-25.345-67.8-59.564-76.33c6.113-1.533 12.511-2.342 19.099-2.342 43.455-.002 78.673 35.217 78.673 78.671z" fill="#f8c52d"/><g fill="#554e55"><g><path d="m94.024 73.875c-.014 0-.027 0-.04 0-4.267-.022-7.758-3.499-7.736-7.766.022-4.254 3.428-7.687 7.676-7.687h.04l.099.001c4.267.022 7.709 3.498 7.687 7.766-.023 4.253-3.478 7.686-7.726 7.686z"/><path d="m158.894 73.875c-.014 0-.027 0-.041 0-4.267-.022-7.758-3.499-7.735-7.766.022-4.254 3.428-7.687 7.676-7.687h.041l.098.001c4.267.022 7.708 3.499 7.687 7.766-.022 4.253-3.477 7.686-7.726 7.686z"/></g><path d="m126.409 117.282c-13.881 0-27.202-5.118-37.508-14.41-3.169-2.858-3.422-7.743-.564-10.912 2.857-3.17 7.743-3.422 10.912-.564 7.462 6.728 17.108 10.434 27.16 10.434s19.697-3.706 27.16-10.434c3.168-2.858 8.054-2.605 10.912.565 2.857 3.169 2.605 8.054-.565 10.912-10.306 9.291-23.626 14.409-37.507 14.409z"/></g></g><g><circle cx="312.05" cy="78.673" fill="#fddd45" r="78.673"/><path d="m390.722 78.674c0 43.454-35.218 78.673-78.673 78.673-6.589 0-12.987-.809-19.099-2.342 34.219-8.531 59.564-39.465 59.564-76.33s-25.345-67.8-59.564-76.33c6.112-1.533 12.511-2.342 19.099-2.342 43.455-.002 78.673 35.217 78.673 78.671z" fill="#f8c52d"/><g fill="#554e55"><g><path d="m279.665 73.875c-.014 0-.027 0-.04 0-4.267-.022-7.758-3.499-7.736-7.766.022-4.254 3.428-7.687 7.676-7.687h.04l.099.001c4.267.022 7.709 3.498 7.687 7.766-.022 4.253-3.478 7.686-7.726 7.686z"/><path d="m344.536 73.875c-.014 0-.027 0-.041 0-4.267-.022-7.758-3.499-7.735-7.766.022-4.254 3.428-7.687 7.676-7.687h.041l.098.001c4.267.022 7.708 3.499 7.687 7.766-.023 4.253-3.478 7.686-7.726 7.686z"/></g><path d="m344.382 117.282c-1.844 0-3.694-.656-5.171-1.988-7.463-6.728-17.109-10.434-27.16-10.434-10.052 0-19.697 3.706-27.16 10.434-3.169 2.857-8.055 2.605-10.912-.565-2.857-3.169-2.605-8.055.565-10.912 10.306-9.292 23.627-14.41 37.508-14.41 13.88 0 27.2 5.118 37.508 14.41 3.17 2.857 3.422 7.742.565 10.912-1.527 1.692-3.632 2.553-5.743 2.553z"/></g></g><g><circle cx="126.409" cy="262.483" fill="#fb8627" r="78.673"/><path d="m205.08 262.478c0 43.454-35.218 78.682-78.673 78.682-6.589 0-12.987-.809-19.099-2.342 34.219-8.531 59.564-39.474 59.564-76.34 0-36.856-25.345-67.8-59.564-76.33 6.113-1.533 12.511-2.342 19.099-2.342 43.455-.001 78.673 35.227 78.673 78.672z" fill="#fb7722"/><g fill="#e22334"><path d="m103.538 262.447c-1.151 0-2.319-.258-3.421-.803l-9.62-4.761c-3.824-1.893-5.39-6.527-3.497-10.352 1.892-3.824 6.525-5.391 10.352-3.497l9.62 4.761c3.824 1.893 5.39 6.527 3.497 10.352-1.348 2.722-4.086 4.3-6.931 4.3z"/><path d="m149.28 262.446c-2.846 0-5.583-1.578-6.931-4.301-1.892-3.824-.326-8.459 3.498-10.352l9.619-4.76c3.823-1.892 8.459-.326 10.352 3.498 1.892 3.824.326 8.459-3.498 10.352l-9.619 4.76c-1.101.545-2.27.803-3.421.803z"/></g></g><g><circle cx="312.05" cy="262.483" fill="#27d1b3" r="78.673"/><path d="m390.722 262.478c0 43.454-35.218 78.682-78.673 78.682-6.589 0-12.987-.809-19.099-2.342 34.219-8.531 59.564-39.474 59.564-76.34 0-36.856-25.345-67.8-59.564-76.33 6.112-1.533 12.511-2.342 19.099-2.342 43.455-.001 78.673 35.227 78.673 78.672z" fill="#20b69f"/><g fill="#c7f1e6"><path d="m279.567 267.205c-.027 0-.054 0-.081-.001-4.267-.044-7.69-3.539-7.646-7.806l.099-9.521c.044-4.267 3.578-7.708 7.806-7.646 4.267.044 7.69 3.539 7.646 7.806l-.099 9.521c-.045 4.24-3.495 7.647-7.725 7.647z"/><path d="m344.533 267.206c-4.23 0-7.681-3.407-7.724-7.647l-.098-9.522c-.044-4.267 3.379-7.762 7.646-7.805.027-.001.054-.001.081-.001 4.23 0 7.681 3.407 7.724 7.647l.098 9.522c.044 4.267-3.379 7.762-7.646 7.805-.027.001-.054.001-.081.001z"/></g></g><path d="m141.821 294.88h-35.196c-4.267 0-7.726-3.459-7.726-7.726s3.459-7.726 7.726-7.726h35.196c4.267 0 7.726 3.459 7.726 7.726.001 4.267-3.458 7.726-7.726 7.726z" fill="#e22334"/><path d="m329.38 290.804h-34.659c-4.267 0-7.726-3.459-7.726-7.726s3.459-7.726 7.726-7.726h34.659c4.267 0 7.726 3.459 7.726 7.726s-3.459 7.726-7.726 7.726z" fill="#c7f1e6"/></g></g></svg>