<svg width="370" height="591" viewBox="0 0 370 591" fill="none" xmlns="http://www.w3.org/2000/svg">
<path d="M292.404 246.326C293.97 245.243 295.202 243.744 295.96 241.997C296.717 240.25 296.97 238.326 296.689 236.442C296.408 234.559 295.606 232.792 294.372 231.342C293.138 229.892 291.522 228.816 289.708 228.238L266.328 220.781L253.48 231.914L281.842 246.946C283.49 247.819 285.347 248.224 287.21 248.114C289.072 248.005 290.869 247.386 292.404 246.326V246.326Z" fill="#FFB9B9"/>
<path d="M253.086 239.184L268.5 221.311L211.105 158.495L184.679 97.2276C182.938 93.1906 179.838 89.8907 175.918 87.9006C171.997 85.9105 167.504 85.3558 163.218 86.3328V86.3328C160.414 86.9718 157.794 88.2447 155.56 90.0537C153.325 91.8628 151.534 94.16 150.325 96.7688C149.116 99.3776 148.521 102.229 148.586 105.103C148.651 107.978 149.373 110.8 150.698 113.351L185.189 179.787L253.086 239.184Z" fill="#E6E6E6"/>
<path d="M289.909 475.935L286.955 471.35H281.5V469.35H288.045L291.591 474.851L289.909 475.935Z" fill="#3F3D56"/>
<path d="M277.668 471.35H266.171V469.35H277.668V471.35ZM262.338 471.35H250.841V469.35H262.338V471.35ZM247.009 471.35H235.512V469.35H247.009L247.009 471.35ZM231.679 471.35H220.182V469.35H231.679V471.35ZM216.35 471.35H204.853V469.35H216.35V471.35ZM201.02 471.35L190.368 471.341L189.399 471.212L189.663 469.23L190.566 469.35H201.02V471.35ZM185.601 470.707L174.203 469.194L174.467 467.211L185.864 468.725L185.601 470.707ZM170.404 468.689L159.007 467.174L159.271 465.192L170.668 466.706L170.404 468.689ZM155.208 466.669L143.811 465.156L144.075 463.173L155.472 464.687L155.208 466.669ZM140.012 464.651L128.615 463.136L128.879 461.154L140.276 462.668L140.012 464.651Z" fill="#3F3D56"/>
<path d="M119.828 466.876L117.829 466.82L118.032 459.712L125.08 460.649L124.816 462.631L119.968 461.988L119.828 466.876Z" fill="#3F3D56"/>
<path d="M118.299 520.418L116.3 520.362L116.682 506.976L118.681 507.033L118.299 520.418ZM118.809 502.571L116.81 502.514L117.192 489.128L119.191 489.185L118.809 502.571ZM119.318 484.723L117.319 484.666L117.702 471.281L119.701 471.337L119.318 484.723Z" fill="#3F3D56"/>
<path d="M115.969 531.933L116.172 524.824L118.171 524.88L118.031 529.767L122.904 529.388L123.06 531.382L115.969 531.933Z" fill="#3F3D56"/>
<path d="M126.887 531.085L126.731 529.091L138.213 528.199L138.369 530.193L126.887 531.085ZM142.196 529.896L142.041 527.902L153.522 527.009L153.678 529.003L142.196 529.896ZM157.505 528.707L157.35 526.712L168.832 525.82L168.986 527.814L157.505 528.707ZM172.814 527.517L172.659 525.523L184.141 524.63L184.295 526.624L172.814 527.517ZM188.122 526.328L187.968 524.334L199.45 523.441L199.605 525.435L188.122 526.328ZM203.432 525.138L203.277 523.144L214.759 522.251L214.913 524.246L203.432 525.138ZM218.74 523.949L218.586 521.955L230.068 521.062L230.223 523.056L218.74 523.949ZM234.05 522.759L233.896 520.765L245.377 519.873L245.531 521.867L234.05 522.759ZM249.358 521.57L249.204 519.576L260.687 518.683L260.841 520.677L249.358 521.57ZM264.668 520.38L264.514 518.386L275.995 517.494L276.149 519.488L264.668 520.38ZM279.977 519.191L279.822 517.197L291.305 516.304L291.459 518.298L279.977 519.191ZM295.286 518.001L295.132 516.007L306.613 515.115L306.768 517.109L295.286 518.001Z" fill="#3F3D56"/>
<path d="M310.595 516.812L310.44 514.818L314.752 514.483L312.409 510.849L314.091 509.765L318.248 516.217L310.595 516.812Z" fill="#3F3D56"/>
<path d="M309.909 506.969L302.409 495.331L304.091 494.247L311.591 505.885L309.909 506.969ZM299.909 491.453L292.409 479.815L294.091 478.731L301.591 490.369L299.909 491.453Z" fill="#3F3D56"/>
<path d="M273 559.85C310.555 559.85 341 529.405 341 491.85C341 454.295 310.555 423.85 273 423.85C235.445 423.85 205 454.295 205 491.85C205 529.405 235.445 559.85 273 559.85Z" fill="#32A899"/>
<path d="M329 570.85L229.5 394.35L207.5 416.35L305.5 570.35L329 570.85Z" fill="#3F3D56"/>
<path d="M27.5 566.35L251 339.85L269.5 376.35L57.5 576.35L27.5 566.35Z" fill="#3F3D56"/>
<path d="M118.5 542.35C143.353 542.35 163.5 522.203 163.5 497.35C163.5 472.497 143.353 452.35 118.5 452.35C93.6472 452.35 73.5 472.497 73.5 497.35C73.5 522.203 93.6472 542.35 118.5 542.35Z" fill="#3F3D56"/>
<path d="M58.5 510.35C58.2349 510.35 57.9807 510.456 57.7932 510.643C57.6057 510.831 57.5003 511.085 57.5 511.35V519.35C57.5003 519.615 57.6057 519.869 57.7932 520.057C57.9807 520.244 58.2349 520.35 58.5 520.35H83.5C83.7652 520.35 84.0193 520.244 84.2068 520.057C84.3943 519.869 84.4998 519.615 84.5 519.35V511.35C84.4998 511.085 84.3943 510.831 84.2068 510.643C84.0193 510.456 83.7652 510.35 83.5 510.35H58.5Z" fill="#6C63FF"/>
<path d="M116 398.85C115.735 398.85 115.481 398.956 115.293 399.143C115.106 399.331 115 399.585 115 399.85V407.85C115 408.115 115.106 408.369 115.293 408.557C115.481 408.744 115.735 408.85 116 408.85H141C141.265 408.85 141.519 408.744 141.707 408.557C141.894 408.369 142 408.115 142 407.85V399.85C142 399.585 141.894 399.331 141.707 399.143C141.519 398.956 141.265 398.85 141 398.85H116Z" fill="#6C63FF"/>
<path d="M237.5 382.35H211.5V362.35L221.5 358.35L237.5 370.35V382.35Z" fill="#3F3D56"/>
<path d="M214.79 353.285L212.078 354.568L217.21 365.415L219.922 364.132L214.79 353.285Z" fill="#3F3D56"/>
<path d="M217.665 340.306C217.474 340.306 217.287 340.361 217.127 340.465L199.464 351.825C199.241 351.968 199.084 352.195 199.028 352.454C198.972 352.713 199.021 352.983 199.164 353.206L203.491 359.935C203.635 360.158 203.861 360.315 204.12 360.371C204.379 360.427 204.65 360.378 204.873 360.235L222.536 348.875V348.876C222.759 348.732 222.915 348.506 222.972 348.247C223.028 347.988 222.979 347.717 222.836 347.494L218.509 340.765C218.438 340.654 218.346 340.559 218.238 340.484C218.13 340.409 218.008 340.357 217.88 340.329C217.809 340.314 217.737 340.306 217.665 340.306V340.306Z" fill="#6C63FF"/>
<path d="M257.5 380.35L237 280.85L261 276.85L277.364 357.005C278.067 359.911 278.073 362.942 277.381 365.85C276.688 368.759 275.317 371.462 273.38 373.739C271.442 376.016 268.994 377.802 266.234 378.951C263.474 380.1 260.481 380.579 257.5 380.35Z" fill="#3F3D56"/>
<path d="M333.031 261.245L309.29 259.549C308.973 259.527 308.665 259.429 308.393 259.263C308.121 259.098 307.893 258.87 307.727 258.599C307.561 258.327 307.462 258.02 307.438 257.703C307.414 257.386 307.467 257.067 307.591 256.774L342.077 175.348C342.207 175.042 342.411 174.773 342.671 174.565C342.932 174.357 343.239 174.218 343.567 174.159L366.985 169.978C367.335 169.915 367.695 169.947 368.028 170.07C368.362 170.193 368.657 170.403 368.882 170.678C369.108 170.953 369.256 171.283 369.312 171.634C369.367 171.985 369.328 172.344 369.199 172.675L335.036 259.979C334.881 260.376 334.603 260.713 334.242 260.941C333.881 261.169 333.457 261.276 333.031 261.245Z" fill="#3F3D56"/>
<path d="M312.5 253.35L331.5 255.35L362.5 177.35L342.5 180.35L312.5 253.35Z" fill="#32A899"/>
<path d="M105.5 467.35L80.5 492.35L44.5 335.35L64.5 338.35L105.5 467.35Z" fill="#3F3D56"/>
<path d="M76.3659 338.112L72.0477 336.817C63.5634 340.557 54.332 342.294 45.0684 341.894C43.0676 341.811 41.1771 340.954 39.7949 339.506C38.4126 338.057 37.6464 336.128 37.6575 334.125V334.125C37.6575 332.063 38.4767 330.086 39.9348 328.627C41.393 327.169 43.3707 326.35 45.4329 326.35H83.1501C84.1712 326.35 85.1504 326.756 85.8724 327.478C86.5944 328.2 87 329.179 87 330.2C87 331.488 86.6989 332.758 86.1208 333.908C85.5427 335.059 84.7036 336.059 83.6704 336.827C82.6373 337.596 81.4387 338.112 80.1704 338.336C78.9022 338.559 77.5993 338.482 76.3659 338.112V338.112Z" fill="#3F3D56"/>
<path d="M315.269 239.929C314.303 239.927 313.363 240.244 312.596 240.83L281.895 264.307L247.528 268.789C241.611 269.561 237.514 275.998 237 281.85L277.453 276.232C283.073 275.691 288.384 273.411 292.647 269.711L318.149 247.656C318.829 247.069 319.313 246.288 319.536 245.418C319.759 244.549 319.711 243.631 319.397 242.79C319.083 241.949 318.52 241.223 317.782 240.712C317.044 240.2 316.167 239.927 315.269 239.929V239.929Z" fill="#3F3D56"/>
<path d="M300.269 224.929C299.303 224.927 298.363 225.244 297.596 225.83L266.895 249.307L232.528 253.789C226.611 254.561 222.514 260.998 222 266.85L262.453 261.232C268.073 260.691 273.384 258.411 277.647 254.711L303.149 232.656C303.829 232.069 304.313 231.288 304.536 230.418C304.759 229.549 304.711 228.631 304.397 227.79C304.083 226.949 303.52 226.223 302.782 225.712C302.044 225.2 301.167 224.927 300.269 224.929V224.929Z" fill="#3F3D56"/>
<path d="M319 285.35C311.851 285.335 304.805 283.643 298.429 280.409C292.053 277.176 286.524 272.491 282.287 266.733L286.319 263.776C289.552 268.193 293.648 271.908 298.358 274.698C303.068 277.488 308.295 279.294 313.723 280.007C319.15 280.72 324.666 280.326 329.937 278.847C335.208 277.369 340.124 274.837 344.389 271.405C348.654 267.973 352.179 263.713 354.751 258.88C357.323 254.048 358.889 248.744 359.354 243.29C359.819 237.835 359.173 232.343 357.456 227.145C355.739 221.947 352.985 217.151 349.363 213.047L353.111 209.737C358.907 216.303 362.685 224.402 363.991 233.062C365.298 241.722 364.077 250.576 360.475 258.559C356.874 266.543 351.045 273.317 343.688 278.07C336.331 282.822 327.759 285.35 319 285.35V285.35Z" fill="#3F3D56"/>
<path d="M354 565.85H0V590.85H354V565.85Z" fill="#3F3D56"/>
<path d="M267.247 272.051C269.015 271.344 270.55 270.156 271.676 268.621C272.803 267.086 273.477 265.266 273.622 263.367C273.767 261.469 273.377 259.568 272.496 257.879C271.615 256.191 270.279 254.784 268.639 253.817L247.5 241.35L232.5 249.35L256.812 270.308C258.225 271.527 259.945 272.333 261.785 272.641C263.626 272.948 265.515 272.744 267.247 272.051V272.051Z" fill="#FFB9B9"/>
<path d="M101.5 360.35L115.5 368.35L201.947 304.719C205.118 302.553 207.806 299.755 209.843 296.5C211.88 293.245 213.222 289.604 213.784 285.806V285.806C214.487 281.004 213.927 276.102 212.16 271.582C210.392 267.062 207.478 263.081 203.703 260.029C184.612 244.523 161.018 230.459 136 216.85L99 234.85C114.248 266.116 131.175 291.895 156 291.85L101.5 360.35Z" fill="#32A899"/>
<path d="M95.3972 380.72C107.013 392.488 122.308 400.908 139.393 407.7C140.681 408.21 142.095 408.308 143.441 407.981C144.787 407.654 145.998 406.918 146.909 405.874C148.014 404.607 148.602 402.97 148.556 401.289C148.51 399.608 147.833 398.006 146.659 396.802L135.585 385.433L128.894 361.602C114.525 368.704 105.104 367.114 103.246 352.235L94.1897 364.585C92.4393 366.979 91.5993 369.918 91.8206 372.875C92.0419 375.832 93.31 378.614 95.3972 380.72V380.72Z" fill="#2F2E41"/>
<path d="M56.5 486.35L77.5 487.35L125.5 240.35L43 213.85C34.7632 244.645 46.9927 295.053 68.5 354.35L56.5 486.35Z" fill="#32A899"/>
<path d="M218 78.85C236.225 78.85 251 64.0754 251 45.85C251 27.6246 236.225 12.85 218 12.85C199.775 12.85 185 27.6246 185 45.85C185 64.0754 199.775 78.85 218 78.85Z" fill="#FFB9B9"/>
<path d="M157.5 86.35L178.5 101.35L210.5 69.35L194.5 49.35L157.5 86.35Z" fill="#FFB9B9"/>
<path d="M39.5 216.35C65.3983 237.455 93.6792 251.327 128.5 245.35C139.022 228.528 146.791 193.091 160 177.85C188.845 144.567 203.152 114.9 194 87.85C185.104 82.034 185.495 82.0436 179 62.85C128.123 72.2627 78.8689 129.695 39.5 216.35Z" fill="#E6E6E6"/>
<path d="M56.164 506.93C71.1118 513.999 88.3676 516.661 106.745 517.179C108.13 517.217 109.492 516.824 110.644 516.055C111.796 515.286 112.682 514.179 113.179 512.886V512.886C113.782 511.317 113.773 509.577 113.153 508.014C112.533 506.451 111.347 505.179 109.832 504.45L95.5294 497.57L81.0688 477.481C70.0089 489.081 60.614 490.82 53.7646 477.481L49.4945 492.189C48.6714 495.038 48.8908 498.087 50.1131 500.788C51.3355 503.49 53.4808 505.668 56.164 506.93Z" fill="#2F2E41"/>
<path d="M230.5 256.35L249.5 242.35L207.5 168.35L195.35 102.742C194.55 98.4187 192.261 94.5125 188.881 91.7009C185.501 88.8894 181.243 87.35 176.847 87.35V87.35C173.971 87.35 171.134 88.0089 168.553 89.2761C165.972 90.5432 163.716 92.385 161.957 94.66C160.199 96.9349 158.985 99.5826 158.41 102.4C157.834 105.217 157.911 108.128 158.636 110.911L177.5 183.35L230.5 256.35Z" fill="#E6E6E6"/>
<path d="M135 407.85H124V467.85H135V407.85Z" fill="#3F3D56"/>
<path d="M244.12 36.2792C245.412 37.8277 247.069 39.0304 248.942 39.7787C250.814 40.527 252.844 40.7975 254.847 40.5657C258.82 39.9465 262.355 36.558 262.61 32.5457C262.829 29.081 260.793 25.9033 258.656 23.1673C253.94 17.1342 248.34 11.848 242.046 7.48765C239.044 5.4097 235.732 3.49679 232.089 3.27276C230.286 3.16191 228.479 3.4727 226.674 3.39514C223.356 3.25256 220.246 1.81668 217.009 1.07297C213.685 0.332533 210.241 0.31465 206.91 1.02052C203.579 1.72639 200.438 3.13954 197.7 5.16438C195.875 6.55937 194.223 8.1689 192.782 9.95828C188.796 14.8335 186.123 20.647 185.016 26.8464C183.276 36.6732 185.448 47.4508 180.726 56.2425C186.267 55.7251 190.709 51.5002 195.973 49.6944C199.879 48.3684 204.119 48.4062 208.001 49.8016C209.001 50.3142 210.128 50.525 211.246 50.4084C212.169 50.0826 212.976 49.4925 213.566 48.7116L223.632 37.7595C225.68 35.5305 228.007 33.1558 231.019 32.8472C232.817 32.7851 234.605 33.1397 236.243 33.8835C240.279 35.4095 244.182 37.2644 247.915 39.4295" fill="#2F2E41"/>
<path d="M225 264.85L222 266.85L242 286.85L254 275.85L234 259.85L225 264.85Z" fill="#3F3D56"/>
</svg>
