<?xml version="1.0" encoding="iso-8859-1"?>
<!-- Generator: Adobe Illustrator 19.0.0, SVG Export Plug-In . SVG Version: 6.00 Build 0)  -->
<svg version="1.1" id="Capa_1" xmlns="http://www.w3.org/2000/svg" xmlns:xlink="http://www.w3.org/1999/xlink" x="0px" y="0px"
	 viewBox="0 0 512 512" style="enable-background:new 0 0 512 512;" xml:space="preserve">
<circle style="fill:#590F38;" cx="256" cy="256" r="256"/>
<path style="fill:#44082C;" d="M510.278,285.675L326.001,101.397L190.906,218.582l69.868,69.868L193.65,280L29.873,376.082
	l106.046,106.046C171.733,501.186,212.601,512,256,512C387.346,512,495.569,413.078,510.278,285.675z"/>
<path style="fill:#FFECB3;" d="M416.691,289.334c-0.104,0.018-0.206,0.033-0.311,0.047l-121.399,15.66
	c-0.154,0.92-0.353,1.839-0.595,2.755c-3.799,14.37-17.34,23.862-32.092,22.502l-70.086-6.297c-4.434-0.396-7.702-4.314-7.304-8.746
	c0.396-4.434,4.332-7.804,8.745-7.305l70.086,6.297c6.924,0.588,13.285-3.82,15.069-10.568c0.972-3.683,0.453-7.526-1.464-10.818
	c-1.917-3.294-5.002-5.644-8.685-6.616l-90.04-23.78c-10.113-2.668-20.724-2.396-30.686,0.798L5.493,308.932
	c4.997,23.765,13.291,46.312,24.38,67.149l39.921-18.494c15.022-8.684,32.962-10.185,49.22-4.104l97.711,36.534
	c18.025,6.079,37.481,5.091,54.796-2.778l156.026-67.816c7.197-4.172,10.106-13.259,6.619-20.849
	C431.107,291.913,423.919,288.122,416.691,289.334z"/>
<g>
	<path style="fill:#FFD863;" d="M263.736,314.248c6.924,0.588,13.285-3.82,15.069-10.568c0.972-3.683,0.453-7.526-1.464-10.818
		c-1.917-3.294-5.002-5.644-8.685-6.616l-12.989-3.43v30.707L263.736,314.248z"/>
	<path style="fill:#FFD863;" d="M434.166,298.574c-3.059-6.661-10.247-10.452-17.475-9.239c-0.104,0.018-0.206,0.033-0.311,0.047
		l-121.399,15.66c-0.154,0.92-0.353,1.839-0.595,2.755c-3.799,14.37-17.34,23.862-32.092,22.502l-6.628-0.596v62.696
		c5.41-1.118,10.727-2.83,15.854-5.16l156.026-67.816C434.744,315.251,437.654,306.164,434.166,298.574z"/>
</g>
<circle style="fill:#FFFFFF;" cx="256" cy="157.16" r="89.5"/>
<path style="fill:#E0E0E0;" d="M256,67.663c-0.111,0-0.222,0.004-0.333,0.004v178.991c0.111,0,0.222,0.004,0.333,0.004
	c49.429,0,89.5-40.071,89.5-89.5S305.429,67.663,256,67.663z"/>
<polygon style="fill:#F1333F;" points="317.419,136.69 276.473,136.69 276.473,95.743 235.527,95.743 235.527,136.69 
	194.581,136.69 194.581,177.636 235.527,177.636 235.527,218.582 276.473,218.582 276.473,177.636 317.419,177.636 "/>
<polygon style="fill:#AE283F;" points="276.473,136.689 276.473,95.743 255.667,95.743 255.667,218.582 276.473,218.582 
	276.473,177.636 317.419,177.636 317.419,136.689 "/>
<g>
</g>
<g>
</g>
<g>
</g>
<g>
</g>
<g>
</g>
<g>
</g>
<g>
</g>
<g>
</g>
<g>
</g>
<g>
</g>
<g>
</g>
<g>
</g>
<g>
</g>
<g>
</g>
<g>
</g>
</svg>
