<svg height="512" viewBox="0 0 512 512" width="512" xmlns="http://www.w3.org/2000/svg"><g id="Flat"><path d="m328 152h16l-8-16v-64a32 32 0 0 0 -32-32h-32v24l24 8v48a32 32 0 0 0 32 32z" fill="#61311c"/><path d="m200 288 8 48-8 32h112l-8-32 8-48z" fill="#fec093"/><path d="m200 368-16 40-106.082 12.48a33.876 33.876 0 0 0 -29.918 33.644 33.876 33.876 0 0 0 33.876 33.876h348.248a33.876 33.876 0 0 0 33.876-33.876 33.876 33.876 0 0 0 -29.918-33.644l-106.082-12.48-16-40z" fill="#b03b8d"/><path d="m248 328h16v40h-16z" fill="#f5a76e"/><path d="m392 396a11.984 11.984 0 0 1 -12 12h-4l-80 40-64.23 14.6-111.77 25.4h-39.45a32.55 32.55 0 0 1 -1.12-65.08l144.89-5 55.68-1.92 4.12-16.48a16 16 0 0 1 19.4-11.64l16.48 4.12 32-8h28a12 12 0 0 1 12 12z" fill="#f7b488"/><path d="m231.77 462.6-111.77 25.4h-39.45a32.55 32.55 0 0 1 -1.12-65.08l144.89-5z" fill="#bc4598"/><path d="m463.98 456.614c-.617 17.624-15.538 31.386-33.173 31.386h-38.807l-111.77-25.4-64.23-14.6-80-40h-4a12 12 0 0 1 -12-12 12 12 0 0 1 12-12h28l32 8 16.478-4.119a16 16 0 0 1 19.4 11.641l4.122 16.478 55.68 1.92 144.89 5a32.543 32.543 0 0 1 31.41 33.694z" fill="#fec093"/><path d="m464 455.45a32.546 32.546 0 0 1 -32.55 32.55h-39.45l-111.77-25.4 7.45-44.68 144.89 5a32.541 32.541 0 0 1 31.43 32.53z" fill="#bc4598"/><path d="m488 400v24l-24 8-12.55-4.18-8.6-2.87-2.04-.68-13.9-4.63-10.91-3.64-24-28.8-2.67-3.2-53.33-64-16-88-24 24h-80l-24-24-16 88-53.33 64-2.67 3.2-24 28.8-10.91 3.64-13.9 4.63-2.04.68-8.6 2.87-12.55 4.18-24-8v-24l32-16a16 16 0 0 1 -16-16h48l48-64 19.11-101.9a31.993 31.993 0 0 1 31.45-26.1h45.44v-56h48v56h45.44a31.993 31.993 0 0 1 31.45 26.1l19.11 101.9 48 64h48a16 16 0 0 1 -16 16z" fill="#fec093"/><path d="m280 120v40.04a40.161 40.161 0 0 1 -48 0v-40.04z" fill="#f5a76e"/><path d="m214 112h14v-27.667h-14a13.918 13.918 0 0 0 -14 13.834 13.917 13.917 0 0 0 14 13.833z" fill="#f7b488"/><path d="m299 84.333h-13v27.667h13c7.18 0 13-6.193 13-13.833 0-7.64-5.82-13.834-13-13.834z" fill="#f7b488"/><path d="m256 152c-17.631 0-33-11.345-37.276-27.517l-1.194-4.516a45.937 45.937 0 0 1 -1.53-11.748v-22.4c0-20.887 17.909-37.819 40-37.819 22.091 0 40 16.932 40 37.818v22.4a45.937 45.937 0 0 1 -1.53 11.748l-1.194 4.516c-4.276 16.173-19.645 27.518-37.276 27.518z" fill="#fec093"/><path d="m265.6 52.255s9.6 18.837 35.72 43.745a117.512 117.512 0 0 0 2.68-24.908c0-26.008-21.49-47.092-48-47.092-26.51 0-48 21.084-48 47.092a117.542 117.542 0 0 0 .905 14.494c14.789-5.269 35.862-7.513 56.695-33.331z" fill="#6e3c26"/><path d="m312 288a40.98 40.98 0 0 0 0-64l-8-48h-16l-3.293 16.466a29.276 29.276 0 0 1 -28.707 23.534 29.276 29.276 0 0 1 -28.707-23.534l-3.293-16.466h-16l-8 48a40.98 40.98 0 0 0 0 64z" fill="#c378cb"/></g></svg>