<svg id="Capa_1" enable-background="new 0 0 512.007 512.007" height="512" viewBox="0 0 512.007 512.007" width="512" xmlns="http://www.w3.org/2000/svg"><g><path d="m507.609 400.397-105.854-104.697-126.313 85.81 124.956 126.098c4.33 4.33 10.82 5.559 16.348 3.252 5.61-2.314 9.258-7.793 9.258-13.857v-71h71c6.064 0 11.543-3.662 13.857-9.258 2.329-5.611 1.04-12.056-3.252-16.348z" fill="#e62e2e"/><path d="m109.094 296.842-104.696 103.555c-4.292 4.292-5.581 10.737-3.252 16.348 2.314 5.61 7.793 9.258 13.857 9.258h71v71c0 6.064 3.647 11.543 9.258 13.857 5.533 2.309 12.023 1.071 16.348-3.252l132.69-133.832z" fill="#ff6673"/><path d="m476.609 215.397-38.262-38.262 14.004-52.251c2.139-7.998-2.607-16.23-10.605-18.369l-52.251-14.004-14.004-52.251c-2.153-8.027-10.313-12.715-18.369-10.605l-52.252 14.004-38.261-39.262c-2.93-2.93-6.768-4.395-10.605-4.395s-7.676 1.465-10.605 4.395l-38.262 39.262-52.251-14.004c-7.925-2.095-16.216 2.607-18.369 10.605l-14.004 52.251-52.251 14.004c-7.998 2.139-12.744 10.371-10.605 18.369l14.004 52.251-38.262 38.262c-5.859 5.859-5.859 15.352 0 21.211l38.262 38.262-14.005 52.25c-2.139 7.998 2.607 16.23 10.605 18.369l52.251 14.004 14.004 52.251c2.153 8.027 10.415 12.744 18.369 10.605l52.251-14.004 38.262 38.262c2.93 2.93 6.768 4.395 10.605 4.395s7.676-1.465 10.605-4.395l38.262-38.262 52.251 14.004c8.086 2.168 16.23-2.578 18.369-10.605l14.004-52.251 52.251-14.004c7.998-2.139 12.744-10.371 10.605-18.369l-14.004-52.251 38.262-38.262c5.86-5.859 5.86-15.351.001-21.21z" fill="#ffbe40"/><path d="m304.87 408.346 52.251 14.004c8.086 2.168 16.23-2.578 18.369-10.605l14.004-52.251 52.251-14.004c7.998-2.139 12.744-10.371 10.605-18.369l-14.004-52.251 38.262-38.262c5.859-5.859 5.859-15.352 0-21.211l-38.262-38.262 14.004-52.251c2.139-7.998-2.607-16.23-10.605-18.369l-52.251-14.004-14.003-52.251c-2.153-8.027-10.313-12.715-18.369-10.605l-52.252 14.004-38.261-39.262c-2.93-2.93-6.768-4.395-10.605-4.395v451c3.838 0 7.676-1.465 10.605-4.395z" fill="#ff9f40"/><circle cx="256.003" cy="226.002" fill="#ffdf40" r="135"/><path d="m391.003 226.002c0-74.443-60.557-135-135-135v270c74.444 0 135-60.556 135-135z" fill="#ffbe40"/><path d="m332.615 206.666c-1.772-5.435-6.46-9.39-12.114-10.21l-35.273-5.127-15.776-31.963c-2.52-5.127-7.983-7.69-13.447-7.69s-10.928 2.563-13.447 7.69l-15.776 31.963-35.273 5.127c-5.654.82-10.342 4.775-12.114 10.21-1.758 5.42-.293 11.382 3.794 15.366l25.532 24.888-6.021 35.127c-.967 5.625 1.348 11.309 5.962 14.663 4.629 3.398 10.781 3.823 15.791 1.143l31.553-16.567 31.553 16.567c4.979 2.639 11.142 2.252 15.791-1.143 4.614-3.354 6.929-9.038 5.962-14.663l-6.021-35.127 25.532-24.888c4.085-3.984 5.549-9.946 3.792-15.366z" fill="#ffbe40"/><path d="m303.347 296.71c4.614-3.354 6.929-9.038 5.962-14.663l-6.021-35.127 25.532-24.888c4.087-3.984 5.552-9.946 3.794-15.366-1.772-5.435-6.46-9.39-12.114-10.21l-35.273-5.127-15.776-31.963c-2.52-5.127-7.983-7.69-13.447-7.69v129.609l31.553 16.567c4.978 2.639 11.141 2.253 15.79-1.142z" fill="#ff9f40"/></g></svg>