<svg id="Layer_1" height="512" viewBox="0 0 512 512" width="512" xmlns="http://www.w3.org/2000/svg" data-name="Layer 1"><path d="m473.46 447.56 16.61 47.44h-234.37l.09-47.37z" fill="#4ca987"/><path d="m255.7 495h-86.62v-.32l5.77-87.87-119.23.12 36.47-95.35 96.85-.03.03-.02 68.52 91.14 68.68-91.36 18.71.05v.22l11.61 72.16 91.87-.19 2.4-.84 22.7 64.85-217.67.07z" fill="#5fcda4"/><path d="m174.85 406.81-5.77 87.87v.32h-147.15l33.69-88.07z" fill="#4ca987"/><path d="m425.86 311.58 24.9 71.13-2.4.84-91.87.19-11.61-72.16v-.22z" fill="#4ca987"/><path d="m256 58.76c57.69 0 104.46 46.53 104.46 103.93s-46.77 103.93-104.46 103.93-104.46-46.53-104.46-103.93 46.77-103.93 104.46-103.93z" fill="#eb7288"/><path d="m326.17 311.31-68.68 91.36-68.52-91.14-44.44-59.1c-20.81-28.4-32.7-62.71-30.32-98.2 4.75-72.75 63.02-137.23 143.28-137.23s138.52 64.48 143.28 137.23c2.37 34.9-8.92 69.8-30.33 98.2zm34.29-148.62c0-57.4-46.77-103.93-104.46-103.93s-104.46 46.53-104.46 103.93 46.77 103.93 104.46 103.93 104.46-46.53 104.46-103.93z" fill="#e5be70"/><path d="m307 153v28h-39v39h-31v-39h-39v-28h39v-40h31v40z" fill="#d4e1f4"/><path d="m181.54 162.69c0-52.331 38.877-95.621 89.46-102.859a105.838 105.838 0 0 0 -15-1.071c-57.69 0-104.46 46.53-104.46 103.93s46.77 103.93 104.46 103.93a105.838 105.838 0 0 0 15-1.071c-50.583-7.238-89.46-50.528-89.46-102.859z" fill="#ce637a"/><path d="m92.09 312-36.47 95.14 30.009.075 36.461-95.215z" fill="#52b28b"/><path d="m55.62 406.93-33.69 88.07h30l33.699-88.1z" fill="#419372"/><g fill="#284268"><path d="m431.521 309.6a6 6 0 0 0 -5.646-4.018l-87.7-.239 37.065-49.3c22.758-30.19 33.951-66.49 31.517-102.2a155.365 155.365 0 0 0 -45.068-99.75 147.522 147.522 0 0 0 -208.4 0 155.353 155.353 0 0 0 -45.068 99.741c-2.344 34.979 8.832 71.252 31.511 102.2l37.234 49.525-84.881.022a6 6 0 0 0 -5.6 3.857l-70.156 183.418a6 6 0 0 0 5.605 8.144h468.132a6 6 0 0 0 5.663-7.983zm-9.923 7.97 21 60-81 .171-9.707-60.356zm-272.23-68.687c-20.969-28.611-31.329-62.081-29.174-94.254a143.374 143.374 0 0 1 41.583-92.051 135.522 135.522 0 0 1 191.418 0 143.373 143.373 0 0 1 41.583 92.068c2.24 32.842-8.1 66.287-29.13 94.178l-108.162 143.864zm14.073 240.117h-132.789l29.1-76.073 108.693-.107zm86.347-41.367-.078 41.367h-74.242l5.368-81.794a5.8 5.8 0 0 0 -1.61-4.4 5.913 5.913 0 0 0 -4.377-1.8h-.006l-110.5.016 31.877-83.439 89.769-.023 66.7 88.724a6 6 0 0 0 9.592 0l66.884-88.963 10.565.029 10.832 67.48a6.115 6.115 0 0 0 5.925 5.17h.013l90.3-.318 18.2 51.943-209.217.035a5.986 5.986 0 0 0 -5.995 5.973zm11.922 41.367.239-35.374 207.051-.066v-1.57l12.609 37.01z"/><path d="m149.489 26.514c-3.653 3-7.229 6.2-10.632 9.507a6 6 0 0 0 8.364 8.607c3.164-3.075 6.492-6.051 9.889-8.845a6 6 0 1 0 -7.621-9.269z"/><path d="m130.521 63.539a6 6 0 0 0 -9.574-7.235 178.041 178.041 0 0 0 -35.675 95.991 167.2 167.2 0 0 0 5.391 54.121 6 6 0 0 0 11.6-3.077 155.222 155.222 0 0 1 -5.017-50.252 166.069 166.069 0 0 1 33.275-89.548z"/><path d="m268 108h-31c-3.313 0-7 1.686-7 5v35h-32c-3.313 0-7 1.686-7 5v28c0 3.314 3.687 7 7 7h32v32c0 3.314 3.687 7 7 7h31c3.313 0 5-3.686 5-7v-32h34c3.313 0 5-3.686 5-7v-28c0-3.314-1.687-5-5-5h-34v-35c0-3.314-1.687-5-5-5zm32 52v16h-32c-3.313 0-7 1.686-7 5v34h-19v-34c0-3.314-1.687-5-5-5h-34v-16h34c3.313 0 5-3.686 5-7v-33h19v33c0 3.314 3.687 7 7 7z"/><path d="m366.46 162.689c0-60.617-49.552-109.933-110.46-109.933a110.549 110.549 0 0 0 -107.311 83.844 6 6 0 0 0 5.839 7.4 6.028 6.028 0 0 0 5.836-4.627 98.527 98.527 0 0 1 95.636-74.617c54.291 0 98.46 43.933 98.46 97.933s-44.169 97.934-98.46 97.934c-49.34 0-90.314-36.287-97.377-83.439a6 6 0 1 0 -11.883 1.68c7.883 52.976 53.873 93.759 109.26 93.759 60.908 0 110.46-49.316 110.46-109.934z"/></g></svg>