<svg id="Layer_1" enable-background="new 0 0 511 511" height="512" viewBox="0 0 511 511" width="512" xmlns="http://www.w3.org/2000/svg"><path d="m202.361 446.901h21.698v32.828c0 17.271 14.001 31.272 31.272 31.272 17.271 0 31.272-14.001 31.272-31.272v-32.828h22.037c14.985 0 27.133-12.148 27.133-27.133 0-14.985-12.148-27.133-27.133-27.133h-22.037v-98.818h-62.205l-.339 98.818h-21.698c-14.985 0-27.133 12.148-27.133 27.133 0 14.985 12.148 27.133 27.133 27.133z" fill="#ef7d92"/><path d="m286.602 371.971v-74.042h-62.205l-.245 74.042c15.854 4.399 49.488 3.211 62.45 0z" fill="#eb6773"/><path d="m255.5 0c-95.136 0-172.259 77.123-172.259 172.259s77.123 172.259 172.259 172.259 172.259-77.123 172.259-172.259-77.123-172.259-172.259-172.259zm0 278.789c-58.835 0-106.53-47.695-106.53-106.53s47.695-106.53 106.53-106.53 106.53 47.695 106.53 106.53-47.695 106.53-106.53 106.53z" fill="#f6a7ae"/><path d="m151.81 196.75c-1.851-7.864-2.84-16.061-2.84-24.49 0-58.835 47.695-106.53 106.53-106.53 8.385 0 16.541.978 24.367 2.81 23.675-14.885 48.337-28.117 74.948-37.027-28.069-19.844-62.326-31.513-99.315-31.513-95.136 0-172.259 77.123-172.259 172.259 0 42.205 15.187 80.858 40.383 110.812.493-1.003 7.644-48.436 28.186-86.321z" fill="#f1919b"/></svg>