<svg id="Capa_1" enable-background="new 0 0 512 512" height="512" viewBox="0 0 512 512" width="512" xmlns="http://www.w3.org/2000/svg"><g><g><g><g><g><g><g><g><g><circle cx="256" cy="256" fill="#ff7045" r="256"/></g></g></g></g></g></g></g></g><path d="m145.947 384.525 126.927 126.927c133.519-8.688 239.126-119.737 239.126-255.452 0-7.116-.291-14.165-.86-21.134l-145.092-145.093z" fill="#de4726"/><g><path d="m345.891 392.609h-179.782c-16.135 0-29.216-13.08-29.216-29.216v-252.483c0-16.135 13.08-29.216 29.216-29.216h179.781c16.135 0 29.216 13.08 29.216 29.216v252.483c0 16.136-13.08 29.216-29.215 29.216z" fill="#fff"/></g><g><path d="m345.891 81.695h-89.891v310.915h89.891c16.135 0 29.216-13.08 29.216-29.216v-252.484c-.001-16.135-13.081-29.215-29.216-29.215z" fill="#e9edf5"/></g><g><path d="m170.56 117.502h170.881v116.572h-170.881z" fill="#64e1dc"/></g><g><path d="m256 117.502h85.44v116.572h-85.44z" fill="#1cadb5"/></g><g><path d="m198.341 320.092h115.318v72.518h-115.318z" fill="#636978"/></g><g><path d="m256 320.092h57.659v72.518h-57.659z" fill="#414952"/></g><g><path d="m224.461 360.622h63.077v97.43h-63.077z" fill="#fff"/></g><g><path d="m256 360.622h31.539v97.43h-31.539z" fill="#e9edf5"/></g><g><path d="m224.461 339.02h63.078v31.875h-63.078z" fill="#ff936b"/></g><g><path d="m256 339.02h31.539v31.875h-31.539z" fill="#ff7045"/></g><g><ellipse cx="188.97" cy="272.932" fill="#afb4c8" rx="18.41" ry="18.636"/></g><g><ellipse cx="323.03" cy="272.932" fill="#7e8596" rx="18.41" ry="18.636"/></g><g><ellipse cx="256" cy="272.932" fill="#afb4c8" rx="18.41" ry="18.636"/></g><g><path d="m256 254.295v37.273c10.168 0 18.41-8.344 18.41-18.636s-8.242-18.637-18.41-18.637z" fill="#7e8596"/></g><g><path d="m284.654 189.293c0 16.019-12.829 29.006-28.654 29.006s-28.654-12.986-28.654-29.006 28.654-56.015 28.654-56.015 28.654 39.996 28.654 56.015z" fill="#ff7045"/></g><g><path d="m256 133.278v85.021c15.825 0 28.654-12.986 28.654-29.006s-28.654-56.015-28.654-56.015z" fill="#de4726"/></g></g></svg>